<?xml version="1.0" encoding="UTF-8" standalone="no"?>
<!-- Created with Inkscape (http://www.inkscape.org/) -->

<svg
   xmlns:dc="http://purl.org/dc/elements/1.1/"
   xmlns:cc="http://creativecommons.org/ns#"
   xmlns:rdf="http://www.w3.org/1999/02/22-rdf-syntax-ns#"
   xmlns:svg="http://www.w3.org/2000/svg"
   xmlns="http://www.w3.org/2000/svg"
   xmlns:sodipodi="http://sodipodi.sourceforge.net/DTD/sodipodi-0.dtd"
   xmlns:inkscape="http://www.inkscape.org/namespaces/inkscape"
   version="1.1"
   id="svg2"
   width="18.830507"
   height="18.830509"
   viewBox="0 0 18.830507 18.830509"
   sodipodi:docname="10film.svg"
   inkscape:version="0.92.1 r15371">
  <metadata
     id="metadata8">
    <rdf:RDF>
      <cc:Work
         rdf:about="">
        <dc:format>image/svg+xml</dc:format>
        <dc:type
           rdf:resource="http://purl.org/dc/dcmitype/StillImage" />
        <dc:title></dc:title>
      </cc:Work>
    </rdf:RDF>
  </metadata>
  <defs
     id="defs6" />
  <sodipodi:namedview
     pagecolor="#ffffff"
     bordercolor="#666666"
     borderopacity="1"
     objecttolerance="10"
     gridtolerance="10"
     guidetolerance="10"
     inkscape:pageopacity="0"
     inkscape:pageshadow="2"
     inkscape:window-width="1280"
     inkscape:window-height="961"
     id="namedview4"
     showgrid="false"
     fit-margin-top="0"
     fit-margin-left="0"
     fit-margin-right="0"
     fit-margin-bottom="0"
     inkscape:zoom="5.3636364"
     inkscape:cx="11.838982"
     inkscape:cy="11.913557"
     inkscape:window-x="-8"
     inkscape:window-y="-8"
     inkscape:window-maximized="1"
     inkscape:current-layer="svg2" />
  <path
     style="stroke-width:0.18644068"
     d="M 0,9.415254 V 0 h 9.415254 9.415254 v 9.415254 9.415255 H 9.415254 0 Z m 2.876588,7.802163 c 0.08275,-0.276698 -0.01685,-0.560324 -0.32092,-0.913825 -0.353688,-0.411187 -0.53945,-0.487866 -0.938971,-0.387593 -0.689953,0.173167 -0.65218,0.821671 0.09221,1.583046 0.632422,0.646857 0.910024,0.579904 1.167686,-0.281628 z m 11.063497,-3.284241 0.05026,-4.05835 -4.618052,0.04988 -4.618052,0.04988 -0.0506,3.817 c -0.02783,2.09935 -0.0089,3.925635 0.04203,4.05841 0.07304,0.19034 1.050051,0.230846 4.618399,0.191475 l 4.525762,-0.04994 z m 3.290797,3.309132 c 0.428347,-0.653741 0.320237,-1.284787 -0.233545,-1.363222 -0.607962,-0.08611 -1.14988,0.466161 -1.14988,1.171844 0,1.127093 0.7063,1.2248 1.383425,0.191378 z M 2.796891,14.448414 c 0.23312,-0.613153 -0.109134,-1.370989 -0.68437,-1.515364 -1.049044,-0.263293 -1.31089,0.458203 -0.511202,1.408578 0.585203,0.695475 0.959057,0.728867 1.195572,0.106786 z m 14.260619,-0.04587 c 0.605064,-0.647135 0.574328,-1.41664 -0.06017,-1.506507 -0.610564,-0.08648 -1.14988,0.466056 -1.14988,1.178059 0,1.004452 0.461001,1.129583 1.210053,0.328448 z M 2.685446,11.512712 C 3.00599,11.015268 2.875692,10.086441 2.463157,9.928136 1.889671,9.708069 0.808564,11.373537 1.242937,11.80791 c 0.292141,0.29214 1.181287,0.110183 1.442509,-0.295198 z m 15.156615,0.110701 c 0.161041,-0.419668 -0.952081,-1.41117 -1.497114,-1.333538 -0.471393,0.06714 -0.6628,0.938833 -0.301692,1.373942 0.318609,0.3839 1.647439,0.354053 1.798806,-0.0404 z M 2.79661,8.483051 C 3.041661,7.838518 2.73514,7.123216 2.151079,6.976626 1.064637,6.703946 0.78771,7.408607 1.601319,8.375526 2.186325,9.070766 2.560368,9.104414 2.79661,8.483051 Z M 13.98305,4.937421 V 0.925689 l -4.614406,0.04987 -4.614407,0.04987 -0.05069,3.723554 c -0.02788,2.047955 -0.0095,3.830794 0.04076,3.961864 0.0708,0.184492 1.124332,0.238311 4.665096,0.238311 h 4.573648 z m 3.069296,3.426699 c 0.579649,-0.688874 0.565861,-1.34613 -0.03002,-1.430911 -0.745991,-0.10614 -1.174872,0.280525 -1.174872,1.059226 0,1.151363 0.435731,1.285777 1.204889,0.371685 z M 2.329542,5.847454 C 2.773146,5.677227 3.008465,4.938577 2.79661,4.381356 2.560368,3.759993 2.186325,3.793641 1.601319,4.488881 0.722134,5.533732 1.135831,6.305524 2.329542,5.847454 Z m 15.273853,0.0055 C 18.025474,5.690988 17.969576,5.408374 17.397322,4.811069 17.080914,4.48081 16.703121,4.288155 16.371898,4.288155 c -0.473628,0 -0.524441,0.06233 -0.524441,0.643278 0,0.870567 0.797732,1.289218 1.755938,0.92152 z M 2.329542,2.864403 C 2.773146,2.694176 3.008465,1.955526 2.79661,1.398305 2.560368,0.776942 2.186325,0.81059 1.601319,1.50583 0.722134,2.550681 1.135831,3.322473 2.329542,2.864403 Z m 15.273853,0.0055 C 18.03485,2.704338 17.965521,2.370697 17.385593,1.821738 16.518439,1.000891 15.847457,1.056137 15.847457,1.948382 c 0,0.870567 0.797732,1.289219 1.755938,0.921521 z"
     id="path24"
     inkscape:connector-curvature="0" />
</svg>
