<?xml version="1.0" encoding="UTF-8" standalone="no"?>
<!-- Created with Inkscape (http://www.inkscape.org/) -->

<svg
   xmlns:dc="http://purl.org/dc/elements/1.1/"
   xmlns:cc="http://creativecommons.org/ns#"
   xmlns:rdf="http://www.w3.org/1999/02/22-rdf-syntax-ns#"
   xmlns:svg="http://www.w3.org/2000/svg"
   xmlns="http://www.w3.org/2000/svg"
   xmlns:sodipodi="http://sodipodi.sourceforge.net/DTD/sodipodi-0.dtd"
   xmlns:inkscape="http://www.inkscape.org/namespaces/inkscape"
   version="1.1"
   id="svg3680"
   width="24.666512"
   height="24.711853"
   viewBox="0 0 24.666512 24.711853"
   sodipodi:docname="1star.svg"
   inkscape:version="0.92.1 r15371">
  <metadata
     id="metadata3686">
    <rdf:RDF>
      <cc:Work
         rdf:about="">
        <dc:format>image/svg+xml</dc:format>
        <dc:type
           rdf:resource="http://purl.org/dc/dcmitype/StillImage" />
        <dc:title></dc:title>
      </cc:Work>
    </rdf:RDF>
  </metadata>
  <defs
     id="defs3684" />
  <sodipodi:namedview
     pagecolor="#ffffff"
     bordercolor="#666666"
     borderopacity="1"
     objecttolerance="10"
     gridtolerance="10"
     guidetolerance="10"
     inkscape:pageopacity="0"
     inkscape:pageshadow="2"
     inkscape:window-width="1280"
     inkscape:window-height="961"
     id="namedview3682"
     showgrid="false"
     fit-margin-top="0"
     fit-margin-left="0"
     fit-margin-right="0"
     fit-margin-bottom="0"
     inkscape:zoom="9.0192308"
     inkscape:cx="-0.69782212"
     inkscape:cy="5.1937346"
     inkscape:window-x="-8"
     inkscape:window-y="-8"
     inkscape:window-maximized="1"
     inkscape:current-layer="svg3680" />
  <path
     style="fill:#000000"
     d="m 4.3076002,24.368633 c -0.350744,-0.567517 -0.353254,-2.715569 -0.0056,-4.773449 0.535819,-3.171485 0.243524,-4.106685 -1.918302,-6.137616 C -1.5976328,9.7173032 -0.53902878,7.4145879 5.1650442,7.40748 6.6278702,7.40566 7.9839182,6.2152485 9.3332557,3.7484088 10.433256,1.7374056 11.782382,0.05112138 12.331313,0.00111058 c 0.548932,-0.050011 1.898932,1.59535542 3,3.65636942 1.367401,2.559542 2.689187,3.7481545 4.170156,3.75 5.704072,0.00711 6.762676,2.3098232 2.781345,6.050088 -2.161826,2.030931 -2.454121,2.966131 -1.918302,6.137616 0.901793,5.337669 0.01643,6.135055 -4.342705,3.911189 -3.630477,-1.852132 -3.774436,-1.852081 -7.3895598,0.0026 -2.372754,1.217295 -3.914263,1.523721 -4.324669,0.859671 z m 8.0256778,-3.339148 c 1.65,0 3.858621,0.386093 4.908046,0.857985 1.729954,0.777902 1.854009,0.52499 1.329099,-2.709648 -0.473975,-2.920766 -0.140001,-3.980001 1.841954,-5.841951 2.919243,-2.742486 3.070754,-3.9256896 0.502688,-3.9256896 -3.326559,0 -5.10602,-1.1461815 -6.767449,-4.3590313 C 12.648776,2.1527139 12.458807,2.0675284 11.434601,3.8345827 9.3510387,7.4293313 6.8281432,9.4101814 4.3332782,9.4101814 c -3.138993,0 -3.159777,1.0315426 -0.0791,3.9256896 1.981955,1.86195 2.315929,2.921185 1.841954,5.841951 -0.524909,3.234638 -0.400854,3.48755 1.329099,2.709648 1.049426,-0.471892 3.2580458,-0.857985 4.9080468,-0.857985 z"
     id="path3692"
     inkscape:connector-curvature="0" />
</svg>
