<?xml version="1.0" encoding="UTF-8" standalone="no"?>
<!-- Created with Inkscape (http://www.inkscape.org/) -->

<svg
   xmlns:dc="http://purl.org/dc/elements/1.1/"
   xmlns:cc="http://creativecommons.org/ns#"
   xmlns:rdf="http://www.w3.org/1999/02/22-rdf-syntax-ns#"
   xmlns:svg="http://www.w3.org/2000/svg"
   xmlns="http://www.w3.org/2000/svg"
   xmlns:sodipodi="http://sodipodi.sourceforge.net/DTD/sodipodi-0.dtd"
   xmlns:inkscape="http://www.inkscape.org/namespaces/inkscape"
   version="1.1"
   id="svg3694"
   width="31.287399"
   height="31.844627"
   viewBox="0 0 31.287399 31.844627"
   sodipodi:docname="2lab.svg"
   inkscape:version="0.92.1 r15371">
  <metadata
     id="metadata3700">
    <rdf:RDF>
      <cc:Work
         rdf:about="">
        <dc:format>image/svg+xml</dc:format>
        <dc:type
           rdf:resource="http://purl.org/dc/dcmitype/StillImage" />
        <dc:title></dc:title>
      </cc:Work>
    </rdf:RDF>
  </metadata>
  <defs
     id="defs3698" />
  <sodipodi:namedview
     pagecolor="#ffffff"
     bordercolor="#666666"
     borderopacity="1"
     objecttolerance="10"
     gridtolerance="10"
     guidetolerance="10"
     inkscape:pageopacity="0"
     inkscape:pageshadow="2"
     inkscape:window-width="1280"
     inkscape:window-height="961"
     id="namedview3696"
     showgrid="false"
     fit-margin-top="0"
     fit-margin-left="0"
     fit-margin-right="0"
     fit-margin-bottom="0"
     inkscape:zoom="7.375"
     inkscape:cx="15.437704"
     inkscape:cy="16.135594"
     inkscape:window-x="-8"
     inkscape:window-y="-8"
     inkscape:window-maximized="1"
     inkscape:current-layer="svg3694" />
  <path
     style="fill:#000000"
     d="m 6.4255248,24.332366 c -8.796017,-8.855117 -8.73488,-9.504579 1.258,-13.363801 4.8029232,-1.8548761 6.7997962,-3.169554 7.1928312,-4.7355328 1.060392,-4.2249382 3.654272,-3.7716729 8.998355,1.57241 4.207566,4.2075678 4.865396,5.3380328 3.953124,6.7933488 -0.601912,0.96021 -1.957606,1.876094 -3.012652,2.035298 -1.328825,0.200518 -2.646602,2.197824 -4.288552,6.5 -2.628958,6.888298 -3.776709,8.710538 -5.486399,8.710538 -0.633921,0 -4.510539,-3.380517 -8.6147072,-7.512261 z m 11.9152172,-0.65873 2.392854,-6.170992 -2.079241,-1.683667 C 15.49225,13.25846 7.9293828,12.53901 4.2385538,14.447612 l -3.062154,1.583501 6.853833,6.906757 c 3.7696072,3.798716 7.0931922,6.906757 7.3857432,6.906757 0.292551,0 1.608696,-2.776946 2.924766,-6.170991 z m -6.903038,-0.829009 c 0,-0.55 0.45,-1 1,-1 0.55,0 1,0.45 1,1 0,0.55 -0.45,1 -1,1 -0.55,0 -1,-0.45 -1,-1 z m 2.364193,-3.493311 c -0.346367,-0.902618 -0.150254,-2.120628 0.435807,-2.706689 1.523609,-1.523609 4.41041,-0.131088 4.012423,1.935492 -0.443302,2.301882 -3.647668,2.857428 -4.44823,0.771197 z m 3.635807,-1.006689 c 0,-0.825 -0.675,-1.5 -1.5,-1.5 -0.825,0 -1.5,0.675 -1.5,1.5 0,0.825 0.675,1.5 1.5,1.5 0.825,0 1.5,-0.675 1.5,-1.5 z M 7.8838538,17.757495 c -1.030522,-1.667419 1.287209,-3.57951 2.6667182,-2.2 1.153924,1.153924 0.431721,3.287132 -1.1128682,3.287132 -0.485081,0 -1.184314,-0.48921 -1.55385,-1.087132 z m 2.5538502,-0.912868 c 0,-0.55 -0.4499999,-1 -1.0000002,-1 -0.55,0 -1,0.45 -1,1 0,0.55 0.45,1 1,1 0.5500003,0 1.0000002,-0.45 1.0000002,-1 z m 13.913912,-2.473569 c 2.714912,-0.05075 2.08051,-2.125982 -1.811813,-5.9267351 -3.739136,-3.651169 -6.922407,-4.1797687 -5.680446,-0.9432694 0.376949,0.9823136 -0.655441,1.9810754 -3.181826,3.0781825 l -3.7398269,1.624056 3.4999999,0.626323 c 1.925,0.344478 4.39039,1.126747 5.478644,1.738375 1.088254,0.611629 2.438254,0.823477 3,0.470775 0.561746,-0.352702 1.657617,-0.65317 2.435268,-0.667707 z m 3.086088,-6.5264323 c 0,-0.55 0.45,-1 1,-1 0.55,0 1,0.45 1,1 0,0.55 -0.45,1.0000002 -1,1.0000002 -0.55,0 -1,-0.4500002 -1,-1.0000002 z M 26.801897,3.3513148 C 26.45553,2.4486966 26.651643,1.2306866 27.237704,0.64462577 c 1.523609,-1.52360902 4.41041,-0.1310885 4.012423,1.93549223 -0.443302,2.3018819 -3.647668,2.857428 -4.44823,0.7711968 z m 3.635807,-1.0066891 c 0,-0.8249999 -0.675,-1.49999989 -1.5,-1.49999989 -0.825,0 -1.5,0.67499999 -1.5,1.49999989 0,0.825 0.675,1.5 1.5,1.5 0.825,0 1.5,-0.675 1.5,-1.5 z"
     id="path3704"
     inkscape:connector-curvature="0" />
</svg>
